Patient4_TMGait_0pt3_03_left_09_GRF.mot
version=1
nRows=51
nColumns=19
inDegrees=no
endheader
time	F1x	F1y	F1z	M1x	M1y	M1z	F2x	F2y	F2z	M2x	M2y	M2z	EC1x	EC1y	EC1z	EC2x	EC2y	EC2z
16.05	0.25351	-1.7635	2.1527	0.1195	-1.4518	-9.2504	-21.211	778.0683	-51.9307	284.8517	65.7267	814.8241	-0.0592	0.0182	-0.0073	-0.0462	0.0165	0.9585
16.0689	-0.0024703	-1.1967	1.4941	0.10382	-1.1246	-6.2001	-23.9313	782.9257	-50.224	287.1589	64.8612	817.6074	-0.0592	0.0182	-0.0073	-0.0462	0.0165	0.9585
16.0879	-0.21258	-0.72326	0.93735	0.088304	-0.84575	-3.6126	-26.5866	791.0464	-48.2415	290.7751	63.5644	823.1716	-0.0592	0.0182	-0.0073	-0.0462	0.0165	0.9585
16.1068	-0.36968	-0.36486	0.51837	0.070005	-0.63578	-1.6359	-28.9273	802.6843	-46.1292	295.7554	61.8812	831.794	-0.0592	0.0182	-0.0073	-0.0462	0.0165	0.9585
16.1257	-0.47868	-0.11442	0.23648	0.048881	-0.49575	-0.26625	-30.727	817.2882	-44.0514	301.8444	59.8969	842.94	-0.0592	0.0182	-0.0073	-0.0462	0.0165	0.9585
16.1446	-0.54898	0.05034	0.071017	0.02638	-0.41572	0.58536	-31.7983	833.3481	-42.1698	308.4268	57.7225	855.1238	-0.0592	0.0182	-0.0073	-0.0462	0.0165	0.9585
16.1636	-0.59576	0.14843	-0.0041073	0.0057712	-0.38699	1.0352	-32.0234	848.5638	-40.5971	314.5998	55.4552	866.0898	-0.0592	0.0182	-0.0073	-0.0462	0.0165	0.9585
16.1825	-0.63607	0.18652	-0.014269	-0.0072353	-0.40127	1.1911	-31.358	860.3443	-39.3632	319.369	53.1404	873.3185	-0.0592	0.0182	-0.0073	-0.0462	0.0165	0.9585
16.2014	-0.68346	0.15935	0.017012	-0.0046407	-0.44724	1.1407	-29.8174	866.4313	-38.4055	321.8843	50.7552	874.6406	-0.0592	0.0182	-0.0073	-0.0462	0.0165	0.9585
16.2204	-0.74698	0.059813	0.070212	0.022231	-0.51436	0.9431	-27.4614	865.4094	-37.5944	321.631	48.2238	868.7302	-0.0592	0.0182	-0.0073	-0.0462	0.0165	0.9585
16.2393	-0.83038	-0.12272	0.13132	0.083585	-0.5933	0.62676	-24.3518	857.0026	-36.7784	318.5344	45.4445	855.3703	-0.0592	0.0182	-0.0073	-0.0462	0.0165	0.9585
16.2582	-0.93522	-0.40892	0.19109	0.19032	-0.67696	0.19993	-20.5355	842.0779	-35.8234	312.9543	42.3208	835.4505	-0.0592	0.0182	-0.0073	-0.0462	0.0165	0.9585
16.2771	-1.0541	-0.82316	0.24329	0.35154	-0.76044	-0.34595	-16.0647	822.3784	-34.6466	305.5731	38.8059	810.7113	-0.0592	0.0182	-0.0073	-0.0462	0.0165	0.9585
16.2961	-1.1644	-1.3743	0.28129	0.56883	-0.83198	-1.0163	-11.0198	800.127	-33.2431	297.2391	34.9361	783.3678	-0.0592	0.0182	-0.0073	-0.0462	0.0165	0.9585
16.315	-1.2253	-2.0421	0.29886	0.83028	-0.86764	-1.7882	-5.5291	777.6139	-31.6931	288.8089	30.8414	755.7181	-0.0592	0.0182	-0.0073	-0.0462	0.0165	0.9585
16.3339	-1.1732	-2.7509	0.2845	1.1036	-0.82724	-2.5803	0.22106	756.8402	-30.1425	281.0162	26.7299	729.8025	-0.0592	0.0182	-0.0073	-0.0462	0.0165	0.9585
16.3529	-0.92133	-3.3442	0.21733	1.3267	-0.65187	-3.2345	6.0008	739.3103	-28.7676	274.3978	22.8468	707.1955	-0.0592	0.0182	-0.0073	-0.0462	0.0165	0.9585
16.3718	-0.35727	-3.5625	0.06652	1.3986	-0.2631	-3.4874	11.5521	725.9317	-27.7401	269.2618	19.4408	688.8884	-0.0592	0.0182	-0.0073	-0.0462	0.0165	0.9585
16.3907	0.6488	-3.028	-0.20257	1.1723	0.42794	-2.944	16.6168	716.9792	-27.2055	265.6833	16.7353	675.2447	-0.0592	0.0182	-0.0073	-0.0462	0.0165	0.9585
16.4096	2.2203	-1.2392	-0.62552	0.45379	1.5082	-1.0743	21.0048	712.1842	-27.2497	263.5484	14.8719	666.0731	-0.0592	0.0182	-0.0073	-0.0462	0.0165	0.9585
16.4286	4.4303	2.4089	-1.2229	-0.99019	3.0292	2.7765	24.6206	710.8978	-27.8733	262.6189	13.8794	660.7742	-0.0592	0.0182	-0.0073	-0.0462	0.0165	0.9585
16.4475	7.2388	8.5513	-1.9837	-3.4061	4.9653	9.3103	27.4393	712.2157	-28.9928	262.58	13.6858	658.4764	-0.0592	0.0182	-0.0073	-0.0462	0.0165	0.9585
16.4664	10.4162	17.7165	-2.8479	-6.9974	7.1604	19.1233	29.4842	715.0448	-30.4538	263.0587	14.1344	658.1131	-0.0592	0.0182	-0.0073	-0.0462	0.0165	0.9585
16.4854	13.435	30.1156	-3.6822	-11.8422	9.261	32.4787	30.8166	718.1624	-32.0497	263.6358	15.0065	658.4788	-0.0592	0.0182	-0.0073	-0.0462	0.0165	0.9585
16.5043	15.4418	45.4865	-4.2914	-17.8318	10.7212	49.1438	31.5325	720.2861	-33.5741	263.8616	16.0686	658.3113	-0.0592	0.0182	-0.0073	-0.0462	0.0165	0.9585
16.5232	15.8315	63.4536	-4.4551	-24.8081	11.062	68.773	31.7724	720.1956	-34.877	263.2981	17.121	656.4122	-0.0592	0.0182	-0.0073	-0.0462	0.0165	0.9585
16.5421	14.619	83.954	-3.9804	-32.7251	10.0664	91.3462	31.6893	716.8509	-35.8638	261.5635	18.0139	651.7657	-0.0592	0.0182	-0.0073	-0.0462	0.0165	0.9585
16.5611	11.9667	106.7634	-2.6788	-41.4725	7.5794	116.6465	31.3976	709.3916	-36.4705	258.3381	18.6467	643.5437	-0.0592	0.0182	-0.0073	-0.0462	0.0165	0.9585
16.58	8.1616	131.0763	-0.4729	-50.7255	3.6206	143.8123	30.9446	697.1616	-36.6665	253.3798	18.9771	631.127	-0.0592	0.0182	-0.0073	-0.0462	0.0165	0.9585
16.5989	3.6613	155.4705	2.4175	-59.9462	-1.3815	171.2483	30.3339	679.8415	-36.4743	246.5733	19.0277	614.2095	-0.0592	0.0182	-0.0073	-0.0462	0.0165	0.9585
16.6179	-0.92671	178.2944	5.4565	-68.5345	-6.5877	197.0728	29.5764	657.6503	-35.9725	238.0065	18.8686	592.9687	-0.0592	0.0182	-0.0073	-0.0462	0.0165	0.9585
16.6368	-5.0914	198.5152	8.1436	-76.1245	-11.2465	220.1111	28.7206	631.516	-35.2653	228.0295	18.5765	568.2101	-0.0592	0.0182	-0.0073	-0.0462	0.0165	0.9585
16.6557	-8.6445	216.2802	10.1657	-82.784	-14.9449	240.5374	27.841	603.0046	-34.4492	217.2216	18.2074	541.3086	-0.0592	0.0182	-0.0073	-0.0462	0.0165	0.9585
16.6746	-11.663	232.6279	11.4733	-88.8991	-17.664	259.5554	27.0114	573.9361	-33.587	206.25	17.7863	513.8826	-0.0592	0.0182	-0.0073	-0.0462	0.0165	0.9585
16.6936	-14.3184	248.6916	12.2326	-94.8758	-19.6516	278.4746	26.291	545.9093	-32.7114	195.6977	17.3169	487.3716	-0.0592	0.0182	-0.0073	-0.0462	0.0165	0.9585
16.7125	-16.7512	265.1394	12.735	-100.9379	-21.2701	298.0515	25.7168	519.9057	-31.8414	185.9206	16.7976	462.6768	-0.0592	0.0182	-0.0073	-0.0462	0.0165	0.9585
16.7314	-19.0516	282.1966	13.2694	-107.1471	-22.8582	318.4914	25.2974	496.0955	-30.9881	176.9816	16.2309	439.9779	-0.0592	0.0182	-0.0073	-0.0462	0.0165	0.9585
16.7504	-21.2531	299.9606	14.0509	-113.5336	-24.6556	339.7862	25.0223	473.9066	-30.1322	168.6807	15.6081	418.796	-0.0592	0.0182	-0.0073	-0.0462	0.0165	0.9585
16.7693	-23.3206	318.7223	15.1882	-120.223	-26.7642	362.0763	24.8668	452.3245	-29.2023	160.6643	14.8876	398.2627	-0.0592	0.0182	-0.0073	-0.0462	0.0165	0.9585
16.7882	-25.1798	339.1344	16.7155	-127.4848	-29.19	385.8705	24.7904	430.2249	-28.0781	152.5419	13.9947	377.4184	-0.0592	0.0182	-0.0073	-0.0462	0.0165	0.9585
16.8071	-26.7548	362.0692	18.6614	-135.664	-31.9286	411.9299	24.7371	406.6035	-26.6332	143.9657	12.8543	355.4181	-0.0592	0.0182	-0.0073	-0.0462	0.0165	0.9585
16.8261	-27.9969	388.3067	21.0441	-145.0618	-34.97	440.9697	24.6206	380.722	-24.7853	134.6764	11.4373	331.6534	-0.0592	0.0182	-0.0073	-0.0462	0.0165	0.9585
16.845	-28.9019	418.2207	23.8602	-155.817	-38.2955	473.3331	24.3129	352.1845	-22.5328	124.5253	9.7878	305.8168	-0.0592	0.0182	-0.0073	-0.0462	0.0165	0.9585
16.8639	-29.4871	451.5436	27.0967	-167.8191	-41.8829	508.7174	23.6549	320.9375	-19.9531	113.4763	8.0185	277.8936	-0.0592	0.0182	-0.0073	-0.0462	0.0165	0.9585
16.8829	-29.7489	487.4056	30.7245	-180.7325	-45.6855	546.2007	22.4923	287.2426	-17.1856	101.5999	6.2883	248.1265	-0.0592	0.0182	-0.0073	-0.0462	0.0165	0.9585
16.9018	-29.6626	524.6271	34.6587	-194.1158	-49.5952	584.5452	20.7196	251.6599	-14.4028	89.0725	4.7621	216.9999	-0.0592	0.0182	-0.0073	-0.0462	0.0165	0.9585
16.9207	-29.206	562.01	38.7489	-207.5323	-53.4416	622.5031	18.3251	215.0447	-11.7752	76.177	3.5682	185.2277	-0.0592	0.0182	-0.0073	-0.0462	0.0165	0.9585
16.9396	-28.3814	598.525	42.821	-220.6155	-57.0442	659.0237	15.4182	178.5326	-9.4433	63.2996	2.7696	153.7363	-0.0592	0.0182	-0.0073	-0.0462	0.0165	0.9585
16.9586	-27.2363	633.3893	46.7074	-233.0937	-60.2544	693.3416	12.2175	143.4493	-7.4977	50.9016	2.3543	123.5961	-0.0592	0.0182	-0.0073	-0.0462	0.0165	0.9585
16.9775	-25.8759	666.0367	50.2642	-244.7729	-62.9793	724.9436	9.0047	111.0936	-5.955	39.4435	2.2349	95.8553	-0.0592	0.0182	-0.0073	-0.0462	0.0165	0.9585
16.9964	-24.4577	696.0753	53.3843	-255.5177	-65.1859	753.5095	6.0461	82.5059	-4.7534	29.3019	2.2732	71.3576	-0.0592	0.0182	-0.0073	-0.0462	0.0165	0.9585
